
#N canvas 395 283 640 480 10;
#X obj 120 270 outlet;
#X obj 120 90 inlet;
#X obj 50 225 * $2;
#X obj 120 196 t $0_bar;
#X obj 180 270 print;
#X obj 120 165 loadbang;
#X obj 50 165 + $1;
#X obj 50 270 outlet;
#X obj 50 90 inlet;
#X text 50 45 Abstraction tester with inlets, local variables and arguments;
#X connect 1 0 6 1;
#X connect 3 0 0 0;
#X connect 3 0 4 0;
#X connect 8 0 6 0;
#X connect 6 0 2 0;
#X connect 5 0 3 0;
#X connect 2 0 7 0;