
#N canvas 624 311 640 480 10;
#X obj 45 135 bng 15 250 50 0 empty empty empty 17 7 0 10 -262144 -1 -1;
#N canvas 59 103 640 480 subby 10;
#X obj 90 139 outlet;
#X obj 90 60 inlet;
#X connect 1 0 0 0;
#X restore 45 90 pd subby;
#X obj 45 45 bng 15 250 50 0 empty empty empty 17 7 0 10 -262144 -1 -1;
#X connect 2 0 1 0;
#X connect 1 0 0 0;