
#N canvas 151 291 640 480 10;
#X obj 195 165 bng 15 250 50 0 empty empty empty 17 7 0 10 -262144 -1 -1;
#X obj 75 45 bng 15 250 50 0 empty empty empty 17 7 0 10 -262144 -1 -1;
#X text 209 45 a recursive subpatcher with branching;
#X floatatom 119 165 8 0 0 0 - - -, f 8;
#N canvas 677 218 640 480 mySub 10;
#X obj 45 90 t i i;
#X obj 45 206 +;
#N canvas 271 218 640 480 subbySubby 10;
#X obj 60 106 t i i;
#X obj 60 226 +;
#N canvas 271 218 640 480 depth22 10;
#X obj 90 150 + 50;
#X obj 90 225 outlet;
#X obj 90 60 inlet;
#X connect 2 0 0 0;
#X connect 0 0 1 0;
#X restore 153 173 pd depth22;
#N canvas 59 103 640 480 depth2 10;
#X obj 90 150 * 100;
#X obj 90 225 outlet;
#X obj 90 60 inlet;
#X connect 2 0 0 0;
#X connect 0 0 1 0;
#X restore 60 173 pd depth2;
#X obj 60 271 outlet;
#X obj 60 45 inlet;
#X connect 5 0 0 0;
#X connect 0 0 3 0;
#X connect 0 1 2 0;
#X connect 3 0 1 0;
#X connect 2 0 1 1;
#X connect 1 0 4 0;
#X restore 138 153 pd subbySubby;
#N canvas 59 103 640 480 subSub 10;
#X obj 90 150 * 100;
#X obj 90 225 outlet;
#X obj 90 60 inlet;
#X connect 2 0 0 0;
#X connect 0 0 1 0;
#X restore 45 153 pd subSub;
#X obj 45 251 outlet;
#X obj 45 45 inlet;
#X connect 5 0 0 0;
#X connect 0 0 3 0;
#X connect 0 1 2 0;
#X connect 3 0 1 0;
#X connect 2 0 1 1;
#X connect 1 0 4 0;
#X restore 119 105 pd mySub;
#X floatatom 119 45 8 0 0 0 - - -, f 8;
#X connect 5 0 4 0;
#X connect 4 0 3 0;
#X connect 4 0 0 0;
#X connect 1 0 4 0;