#N canvas 738 213 637 440 10;
#X text 240 30 This patch was converted from Max to Pure Data;
#X text 45 30 Hello World!;
#X obj 469.5 210 tgl 15 0 empty empty empty 17 7 0 10 -262144 -1 -1 0 1;
#X obj 420 150 tgl 15 0 empty empty empty 17 7 0 10 -262144 -1 -1 0 1;
#X floatatom 510 120 8 0 0 0 - - -, f 8;
#X obj 469.5 180 < 4;
#X obj 420 120 == 10;
#X floatatom 480 75 8 0 0 0 - - -, f 8;
#X floatatom 420 75 8 0 0 0 - - -, f 8;
#X floatatom 135 375 8 0 0 0 - - -, f 8;
#X obj 135 330 - 7;
#X obj 135 285 / 11.;
#X floatatom 240 375 8 0 0 0 - - -, f 8;
#X obj 240 330 % 4;
#X obj 240 285 counter;
#X msg 329 105 450;
#X obj 329 75 loadbang;
#X obj 240 240 bng 15 250 50 0 empty empty empty 17 7 0 10 -262144 -1 -1;
#X obj 285 75 tgl 15 0 empty empty empty 17 7 0 10 -262144 -1 -1 0 1;
#X obj 285 150 metro 300;
#X obj 240 195 gate;
#X obj 240 75 tgl 15 0 empty empty empty 17 7 0 10 -262144 -1 -1 0 1;
#X floatatom 135 240 8 0 0 0 - - -, f 8;
#X obj 135 195 * 3.14;
#X floatatom 135 75 8 0 0 0 - - -, f 8;
#X obj 135 105 t b f;
#X obj 135 150 + 1.;
#X floatatom 45 75 8 0 0 0 - - -, f 8;
#X connect 23 0 22 0;
#X connect 22 0 11 0;
#X connect 21 0 20 0;
#X connect 20 0 17 0;
#X connect 19 0 20 1;
#X connect 18 0 19 0;
#X connect 27 0 26 0;
#X connect 17 0 14 0;
#X connect 16 0 15 0;
#X connect 15 0 19 1;
#X connect 14 0 13 0;
#X connect 13 0 12 0;
#X connect 11 0 10 0;
#X connect 10 0 9 0;
#X connect 8 0 6 0;
#X connect 7 0 6 1;
#X connect 7 0 5 1;
#X connect 6 0 3 0;
#X connect 5 0 2 0;
#X connect 4 0 5 0;
#X connect 26 0 23 0;
#X connect 25 1 26 1;
#X connect 25 0 26 0;
#X connect 24 0 25 0;