#N canvas 652 221 689 511 12;
#X obj 63 314 print;
#X msg 63 68 0 \, 1 10 0 500;
#X msg 107 122 This is some text;
#X msg 147 168 1 2 3;
#X msg 147 211 \$1 \$2 \$3 4 5 6;
#X msg 245 167 "a symbol" in a "longer list";
#X msg 283 214 "Multi line messages are allowed?";
#X msg 286 266 segmented \, message \, also \, allowed;
#X connect 1 0 0 0;
#X connect 2 0 0 0;
#X connect 3 0 4 0;
#X connect 4 0 0 0;
#X connect 5 0 0 0;
#X connect 6 0 0 0;
#X connect 7 0 0 0;
