#N canvas 62 292 710 474 10;
#X text 47 46 Hello World!;
#X floatatom 47 93 5 0 0 0 - - -, f 5;
#X floatatom 111 93 5 0 0 0 - - -, f 5;
#X obj 110 130 t b f;
#X obj 110 172 + 1;
#X obj 110 217 * 3.14;
#X floatatom 110 256 5 0 0 0 - - -, f 5;
#X obj 110 290 / 11;
#X obj 110 333 - 7;
#X floatatom 110 374 5 0 0 0 - - -, f 5;
#X obj 204 92 tgl 15 0 empty empty empty 17 7 0 10 -262144 -1 -1 0
1;
#X obj 204 213 gate;
#X obj 264 169 metro 300;
#X obj 264 91 tgl 15 0 empty empty empty 17 7 0 10 -262144 -1 -1 0
1;
#X obj 313 93 loadbang;
#X msg 313 125 450;
#X obj 205 257 bng 15 250 50 0 empty empty empty 17 7 0 10 -262144
-1 -1;
#X obj 205 290 counter;
#X obj 205 333 % 4;
#X floatatom 205 375 5 0 0 0 - - -, f 5;
#X floatatom 406 92 5 0 0 0 - - -, f 5;
#X obj 405 171 tgl 15 0 empty empty empty 17 7 0 10 -262144 -1 -1 0
1;
#X floatatom 463 93 5 0 0 0 - - -, f 5;
#X floatatom 492 129 5 0 0 0 - - -, f 5;
#X obj 448 170 < 4;
#X obj 405 132 == 10;
#X obj 447 213 tgl 15 0 empty empty empty 17 7 0 10 -262144 -1 -1 0
1;
#X text 202 46 This patch was converted from Pure Data to Max;
#X connect 1 0 4 0;
#X connect 2 0 3 0;
#X connect 3 0 4 0;
#X connect 3 1 4 1;
#X connect 4 0 5 0;
#X connect 5 0 6 0;
#X connect 6 0 7 0;
#X connect 7 0 8 0;
#X connect 8 0 9 0;
#X connect 10 0 11 0;
#X connect 11 0 16 0;
#X connect 12 0 11 1;
#X connect 13 0 12 0;
#X connect 14 0 15 0;
#X connect 15 0 12 1;
#X connect 16 0 17 0;
#X connect 17 0 18 0;
#X connect 18 0 19 0;
#X connect 20 0 25 0;
#X connect 22 0 24 1;
#X connect 22 0 25 1;
#X connect 23 0 24 0;
#X connect 24 0 26 0;
#X connect 25 0 21 0;
