#N canvas 151 354 450 300 10;
#X obj 31 28 tgl 15 0 empty empty empty 17 7 0 10 -262144 -1 -1 0 2
;
#X obj 55 66 gate;
#X obj 76 27 bng 15 250 50 0 empty empty empty 17 7 0 10 -262144 -1
-1;
#X obj 53 109 counter;
#X floatatom 53 156 5 0 0 0 - - -, f 5;
#X obj 170 32 tgl 15 0 empty empty empty 17 7 0 10 -262144 -1 -1 0
1;
#X connect 0 0 1 0;
#X connect 1 0 3 0;
#X connect 2 0 1 1;
#X connect 3 0 4 0;
