#N canvas 102 163 777 587 10;
#X obj 403 345 bng 15 250 50 0 empty empty empty 17 7 0 10 -262144 -1 -1;
#X obj 403 300 % 8;
#X floatatom 403 255 8 0 0 0 - - -, f 8;
#X obj 403 210 counter;
#X obj 450 53 tgl 15 0 empty empty empty 17 7 0 10 -262144 -1 -1 0 1;
#X obj 450 90 metro 250;
#X obj 403 150 gate;
#X obj 403 55 tgl 15 0 empty empty empty 17 7 0 10 -262144 -1 -1 0 1;
#X floatatom 274.5 390 8 0 0 0 - - -, f 8;
#X obj 285 210 t 5;
#X obj 274.5 345 !-;
#X obj 240 300 /;
#X obj 240 150 t i i b;
#X floatatom 158 300 8 0 0 0 - - -, f 8;
#X obj 158 255 sqrt;
#X obj 158 210 pow 2;
#X obj 90 150 *;
#X obj 158 105 +;
#X floatatom 225 55 8 0 0 0 - - -, f 8;
#X floatatom 158 55 8 0 0 0 - - -, f 8;
#X floatatom 90 55 8 0 0 0 - - -, f 8;
#X connect 19 0 17 0;
#X connect 18 0 17 1;
#X connect 17 0 16 1;
#X connect 17 0 12 0;
#X connect 16 0 15 0;
#X connect 15 0 14 0;
#X connect 14 0 13 0;
#X connect 14 0 11 0;
#X connect 12 0 15 1;
#X connect 12 1 11 1;
#X connect 12 2 9 0;
#X connect 11 0 10 0;
#X connect 10 0 8 0;
#X connect 9 0 10 1;
#X connect 7 0 6 0;
#X connect 6 0 3 0;
#X connect 5 0 6 1;
#X connect 4 0 5 0;
#X connect 3 0 2 0;
#X connect 2 0 1 0;
#X connect 1 0 0 0;
#X connect 20 0 16 0;